<svg xmlns="http://www.w3.org/2000/svg" version="1.1" xmlns:xlink="http://www.w3.org/1999/xlink" xmlns:svgjs="http://svgjs.dev/svgjs" width="100%" height="100%" viewBox="0 0 1000 600"><rect width="1000" height="600" x="0" y="0" fill="#262223"/><g><circle r="166.66666666666666" cx="282.67922465006507" cy="304.90146846079557" fill="#ddc6b6" transform="matrix(1.0774693912517563,0,0,1.0774693912517563,0,-28.521995557768307)"/><path d="M205.0160806216201 370.08198723111184L205.0160806216201 239.8399713637571Q205.0160806216201 235.7336432418254 207.93216870820922 232.81755515523625Q210.87801279568197 229.9014670686471 214.95458491673008 229.9014670686471L214.95458491673008 229.9014670686471L299.99723544195285 229.9014670686471Q331.2707923705774 229.9014670686471 346.1190368114753 247.87409160231908L346.1190368114753 247.87409160231908Q354.3912050571058 257.8125958974291 354.3912050571058 273.25596035599824Q354.3912050571058 288.6695688136838 340.25710463741336 300.18514115562266L340.25710463741336 300.18514115562266Q360.34240523381834 310.95681347547236 360.34240523381834 333.6606421496309Q360.34240523381834 356.36447082378936 344.303920757578 368.11809117279677Q328.23568028045406 379.90146752268765 304.9069755877407 379.90146752268765L304.9069755877407 379.90146752268765L214.95458491673008 379.90146752268765Q210.87801279568197 379.90146752268765 207.93216870820922 377.01513543698206Q205.0160806216201 374.15855935215995 205.0160806216201 370.08198723111184L205.0160806216201 370.08198723111184ZM244.44278179234092 315.6582616150754L244.44278179234092 351.66302268418644L304.2820995691859 351.66302268418644Q312.34597580863147 351.66302268418644 316.6308399358645 346.84255054104926Q320.91570406309756 342.0220783979121 320.91570406309756 333.6606421496309Q320.91570406309756 325.29920590134975 316.6308399358645 320.47873375821257Q312.34597580863147 315.6582616150754 304.2820995691859 315.6582616150754L304.2820995691859 315.6582616150754L244.44278179234092 315.6582616150754ZM244.44278179234092 258.229179909799L244.44278179234092 288.16371679866324L300.4138194543227 288.16371679866324Q306.98989564959015 288.16371679866324 310.9771997679875 284.2359246820329Q314.96450388638493 280.3081325654026 314.96450388638493 273.25596035599824Q314.96450388638493 266.20378814659387 310.9771997679875 262.2164840281964Q306.98989564959015 258.229179909799 300.4138194543227 258.229179909799L300.4138194543227 258.229179909799L244.44278179234092 258.229179909799Z " fill="#262223" transform="matrix(1.0774693912517563,0,0,1.0774693912517563,0,-28.521995557768307)"/><path d="M532.6792428530651 370.2902792372969L532.6792428530651 370.2902792372969L532.6792428530651 240.04826336994202Q532.6792428530651 235.7336432418254 535.5953309396544 232.81755515523625Q538.5411750271271 229.9014670686471 542.6177471481752 229.9014670686471L542.6177471481752 229.9014670686471L562.2864637322103 229.9014670686471Q566.3630358532583 229.9014670686471 569.2196119380804 232.81755515523625Q572.105944023786 235.7336432418254 572.105944023786 240.04826336994202L572.105944023786 240.04826336994202L572.105944023786 350.2942466435426L663.2188187292556 350.2942466435426Q667.2953908503038 350.2942466435426 670.1817229360094 353.24009073101524Q673.0680550217149 356.1561788176044 673.0680550217149 360.23275093865254L673.0680550217149 360.23275093865254L673.0680550217149 370.08198723111184Q673.0680550217149 374.15855935215995 670.1817229360094 377.01513543698206Q667.2953908503038 379.90146752268765 663.2188187292556 379.90146752268765L663.2188187292556 379.90146752268765L542.6177471481752 379.90146752268765Q538.5411750271271 379.90146752268765 535.5953309396544 377.1341594405163Q532.6792428530651 374.3668513583449 532.6792428530651 370.2902792372969ZM659.4695626179267 249.65945165533284L659.4695626179267 249.65945165533284L659.4695626179267 239.8399713637571Q659.4695626179267 235.52535123564047 662.2963827018652 232.72828715258555Q665.1232027858036 229.9014670686471 669.4080669130367 229.9014670686471L669.4080669130367 229.9014670686471L802.1495868546108 229.9014670686471Q806.4344509818438 229.9014670686471 809.2612710657822 232.72828715258555Q812.0880911497209 235.52535123564047 812.0880911497209 239.8399713637571L812.0880911497209 239.8399713637571L812.0880911497209 249.65945165533284Q812.0880911497209 253.9443157825659 809.2612710657822 256.71162386473725Q806.4344509818438 259.50868794779217 802.1495868546108 259.50868794779217L802.1495868546108 259.50868794779217L755.4921774691842 259.50868794779217L755.4921774691842 370.2902792372969Q755.4921774691842 374.3668513583449 752.6058453834785 377.1341594405163Q749.7492692986566 379.90146752268765 745.6726971776084 379.90146752268765L745.6726971776084 379.90146752268765L725.8849565900391 379.90146752268765Q721.808384468991 379.90146752268765 718.9220523832854 377.1341594405163Q716.0654762984633 374.3668513583449 716.0654762984633 370.2902792372969L716.0654762984633 370.2902792372969L716.0654762984633 259.50868794779217L669.4080669130367 259.50868794779217Q665.1232027858036 259.50868794779217 662.2963827018652 256.71162386473725Q659.4695626179267 253.9443157825659 659.4695626179267 249.65945165533284Z " fill="#ddc6b6" transform="matrix(1.0774693912517563,0,0,1.0774693912517563,0,-28.521995557768307)"/></g></svg>